<?xml version="1.0" encoding="UTF-8"?>
<!DOCTYPE svg PUBLIC "-//W3C//DTD SVG 1.1//EN" "http://www.w3.org/Graphics/SVG/1.1/DTD/svg11.dtd">
<!-- Creator: CorelDRAW X6 -->
<svg xmlns="http://www.w3.org/2000/svg" xml:space="preserve" width="5.82677in" height="4.13386in" version="1.1" style="shape-rendering:geometricPrecision; text-rendering:geometricPrecision; image-rendering:optimizeQuality; fill-rule:evenodd; clip-rule:evenodd"
viewBox="0 0 5827 4134"
 xmlns:xlink="http://www.w3.org/1999/xlink">
 <defs>
  <style type="text/css">
   <![CDATA[
    .fil0 {fill:none}
    .fil1 {fill:#00A859}
   ]]>
  </style>
 </defs>
 <g id="Layer_x0020_1">
  <metadata id="CorelCorpID_0Corel-Layer"/>
  <g id="_349565296">
   <rect class="fil0" width="5827" height="4134"/>
   <path id="curve" class="fil1" d="M3748 2411c-43,-24 -254,-137 -293,-153 -40,-16 -68,-24 -99,18 -31,43 -118,138 -145,166 -27,28 -52,31 -95,7 -43,-23 -182,-75 -343,-230 -126,-121 -208,-267 -232,-312 -24,-45 0,-67 23,-88 20,-19 46,-49 68,-74 23,-25 31,-43 46,-71 16,-29 9,-54 -1,-77 -10,-22 -89,-241 -123,-329 -33,-89 -70,-76 -96,-77 -25,-1 -54,-6 -84,-7 -29,-1 -77,8 -119,50 -42,42 -159,144 -167,359 -8,215 141,429 161,458 21,30 284,496 722,688 438,192 440,133 520,129 80,-4 262,-96 303,-197 40,-101 43,-188 33,-207 -10,-19 -39,-31 -82,-54zm-803 1036c-289,0 -559,-87 -784,-236l-548 175 178 -529c-171,-235 -271,-524 -271,-836 0,-786 639,-1425 1425,-1425 786,0 1425,639 1425,1425 0,786 -639,1425 -1425,1425zm0 -3137c-945,0 -1712,766 -1712,1712 0,323 90,626 246,884l-309 918 948 -303c245,136 527,213 827,213 945,0 1712,-766 1712,-1712 0,-945 -766,-1712 -1712,-1712z"/>
  </g>
 </g>
</svg>
